<?xml version="1.0" encoding="utf-8"?>
<svg viewBox="0 0 500 500" xmlns="http://www.w3.org/2000/svg">
  <g id="hair" transform="matrix(2.596945, 0, 0, 2.560349, 196.325671, 146.840044)" style=""/>
  <g id="skin" transform="matrix(2.596945, 0, 0, 2.560349, 196.325671, 146.840044)" style=""/>
  <g id="skin-shadow" transform="matrix(2.596945, 0, 0, 2.560349, 196.325671, 146.840044)" style=""/>
  <g id="g-2" transform="matrix(1, 0, 0, 1, 338.094213, 66.692979)"/>
  <g id="g-3" transform="matrix(1, 0, 0, 1, 338.094213, 66.692979)"/>
  <g id="g-4" transform="matrix(1, 0, 0, 1, 338.094213, 66.692979)"/>
  <g id="g-1" transform="matrix(2.613606, 0, 0, 2.65852, 255.364719, 145.799242)" style=""/>
  <g id="g-5" transform="matrix(2.613606, 0, 0, 2.65852, 255.364719, 145.799242)" style=""/>
  <g id="g-6" transform="matrix(2.613606, 0, 0, 2.65852, 255.364719, 145.799242)" style=""/>
  <g id="color" transform="matrix(2.555184, 0, 0, 2.809414, 247.631138, 109.372957)" style="">
    <path stroke="none" d="M64.8,44l-1.1-0.6c-0.4-0.2-0.6-0.6-0.5-1c0.3-1.9,0.5-8.5-9.7-11.5c-0.2-0.1-0.4-0.1-0.6-0.1l-19.6,0.1 c-0.4,0-0.8,0.1-1.1,0.3l-10.3,6.9c-0.2,0.1-0.4,0.2-0.6,0.2c-1.9-0.1-3.7,0.1-5.6,0.4c-5.4,1.1-7.6,4-8.4,5.5 c-0.2,0.3-0.2,0.7-0.2,1c0.1,2.4-1.5,5.1,0.9,7.3l19.4-0.1l20.4-0.5l16.1-0.2c0.9-0.1001,2.4-1.4,2.8-2.2001 C68.4,46.8,65,44.1,64.8,44z" style="fill: rgb(59, 66, 82);"/>
    <path fill="#9b9b9a" stroke="none" d="M17.3,46.4c-2.2,0-4,1.8-4,4c0,2.2,1.8,4,4,4s4-1.8,4-4C21.3,48.2,19.5,46.4,17.3,46.4z"/>
    <path fill="#9b9b9a" stroke="none" d="M57.1,46.4c-2.2,0-4,1.8-4,4c0,2.2,1.8,4,4,4c2.2,0,4-1.8,4-4C61.1,48.2,59.3,46.4,57.1,46.4z"/>
    <path stroke="none" d="M56.1,39.3V35c0-0.9-0.8-1.7-1.7-1.7l0,0H33.2c-0.1,0-0.2,0-0.2,0.1l-8,5.7c-0.2,0.1-0.2,0.4-0.1,0.6 c0.1,0.1,0.2,0.2,0.3,0.2c5.6,0,27.2-0.2,30.4-0.1C55.9,39.8,56.1,39.6,56.1,39.3C56.1,39.4,56.1,39.4,56.1,39.3z" style="fill: rgb(255, 255, 255);"/>
    <polygon fill="#fcea2b" stroke="none" points="8.9,40.5 12.9,42.1 10.8,45 5.8,45.1"/>
  </g>
  <g id="g-7" transform="matrix(2.555184, 0, 0, 2.809414, 247.631138, 109.372957)" style=""/>
  <g id="g-8" transform="matrix(2.555184, 0, 0, 2.809414, 247.631138, 109.372957)" style=""/>
  <g id="g-9" transform="matrix(2.555184, 0, 0, 2.809414, 247.631138, 109.372957)" style=""/>
  <g id="line" transform="matrix(2.555184, 0, 0, 2.809414, 247.631138, 109.372957)" style="">
    <line x1="47.6" x2="27" y1="51" y2="51.4" fill="none" stroke="#000000" stroke-linecap="round" stroke-linejoin="round" stroke-width="2"/>
    <path fill="none" stroke="#000000" stroke-linecap="round" stroke-linejoin="round" stroke-width="2" d="M8.1,51.4 c-0.9-0.2-1.7-0.5-1.8-1c-0.1-1-0.3-3.8-0.3-5.1c0-0.5,0.1-1.1,0.4-1.5c1.1-2,4.8-6.8,14.9-6.4l10.3-6.9c0.5-0.3,1.1-0.5,1.6-0.5 l19.6-0.1c0.3,0,0.6,0,0.9,0.1c2.2,0.6,11.7,4,10.4,12.6l1.1,0.6c0.5,0.2,0.9,0.7,1,1.2c0.4,1.4,0.3,2.9-0.2,4.3"/>
    <polyline fill="none" stroke="#000000" stroke-linecap="round" stroke-linejoin="round" stroke-width="2" points="24.9,39.9 55.1,39.7 55.1,35.2"/>
    <circle cx="17.3" cy="50.4" r="5" fill="none" stroke="#000000" stroke-linecap="round" stroke-linejoin="round" stroke-width="2"/>
    <circle cx="57.1" cy="50.4" r="5" fill="none" stroke="#000000" stroke-linecap="round" stroke-linejoin="round" stroke-width="2"/>
    <polyline fill="none" stroke="#000000" stroke-linecap="round" stroke-linejoin="round" stroke-width="2" points="12.3,42.9 10.5,45.1 6.8,45"/>
  </g>
</svg>