<?xml version="1.0" encoding="utf-8"?>
<svg viewBox="0 0 500 500" xmlns="http://www.w3.org/2000/svg">
  <g id="hair" transform="matrix(2.596945, 0, 0, 2.560349, 196.325671, 146.840044)" style=""/>
  <g id="skin" transform="matrix(2.596945, 0, 0, 2.560349, 196.325671, 146.840044)" style=""/>
  <g id="skin-shadow" transform="matrix(2.596945, 0, 0, 2.560349, 196.325671, 146.840044)" style=""/>
  <g id="g-2" transform="matrix(1, 0, 0, 1, 338.094213, 66.692979)"/>
  <g id="g-3" transform="matrix(1, 0, 0, 1, 338.094213, 66.692979)"/>
  <g id="g-4" transform="matrix(1, 0, 0, 1, 338.094213, 66.692979)"/>
  <g id="g-1" transform="matrix(2.613606, 0, 0, 2.65852, 255.364719, 145.799242)" style=""/>
  <g id="g-5" transform="matrix(2.613606, 0, 0, 2.65852, 255.364719, 145.799242)" style=""/>
  <g id="g-6" transform="matrix(2.613606, 0, 0, 2.65852, 255.364719, 145.799242)" style=""/>
  <g id="color" transform="matrix(2.555184, 0, 0, 2.809414, 247.631138, 109.372957)" style=""/>
  <g id="g-7" transform="matrix(2.555184, 0, 0, 2.809414, 247.631138, 109.372957)" style=""/>
  <g id="g-8" transform="matrix(2.555184, 0, 0, 2.809414, 247.631138, 109.372957)" style=""/>
  <g id="g-9" transform="matrix(2.555184, 0, 0, 2.809414, 247.631138, 109.372957)" style=""/>
  <g id="g-10" transform="matrix(2.491158, 0, 0, 2.622516, 250.110599, 124.700716)" style=""/>
  <g id="g-13" transform="matrix(2.491158, 0, 0, 2.622516, 250.110599, 124.700716)" style=""/>
  <g id="g-12" transform="matrix(2.567299, 0, 0, 2.552537, 245.694111, 184.032946)" style=""/>
  <g id="g-14" transform="matrix(2.567299, 0, 0, 2.552537, 245.694111, 184.032946)" style=""/>
  <g id="g-15" transform="matrix(2.567299, 0, 0, 2.552537, 245.694111, 184.032946)" style=""/>
  <g id="g-16" transform="matrix(2.983413, 0, 0, 3.133865, 160.67702, 112.241762)" style=""/>
  <g id="g-17" transform="matrix(2.983413, 0, 0, 3.133865, 160.67702, 112.241762)" style=""/>
  <g id="g-18" transform="matrix(2.983413, 0, 0, 3.133865, 160.67702, 112.241762)" style=""/>
  <g id="g-19" transform="matrix(2.793637, 0, 0, 2.82474, 207.31879, 135.298723)" style=""/>
  <g id="g-20" transform="matrix(2.793637, 0, 0, 2.82474, 207.31879, 135.298723)" style=""/>
  <g id="g-21" transform="matrix(2.793637, 0, 0, 2.82474, 207.31879, 135.298723)" style=""/>
  <g id="g-11" transform="matrix(1, 0, 0, 1, 355.123449, 135.530672)">
    <rect x="12.854" y="16.5774" width="42.4977" height="42.246" fill="#FFFFFF" stroke="none"/>
    <polygon stroke="none" points="32.775,39.4058 37.4938,37.6238 34.5571,34.687" style="fill: rgb(59, 66, 82);"/>
    <rect x="44.8202" y="9.0123" width="5.3523" height="31.1323" transform="matrix(0.7071 0.7071 -0.7071 0.7071 31.291 -26.3861)" stroke="none" style="fill: rgb(59, 66, 82);"/>
  </g>
  <g id="g-22" transform="matrix(1, 0, 0, 1, 355.123449, 135.530672)"/>
  <g id="g-23" transform="matrix(1, 0, 0, 1, 355.123449, 135.530672)"/>
  <g id="g-24" transform="matrix(1, 0, 0, 1, 355.123449, 135.530672)"/>
  <g id="line" transform="matrix(1, 0, 0, 1, 355.123449, 135.530672)">
    <path fill="none" stroke="#000000" stroke-linecap="round" stroke-linejoin="round" stroke-miterlimit="10" stroke-width="2" d="M54.5567,28.084v30.6836c0,0.55-0.45,1-1,1H13.1685c-0.55,0-1-0.45-1-1V18.3794c0-0.5523,0.4477-1,1-1h31.0229"/>
    <path fill="none" stroke="#000000" stroke-linecap="round" stroke-linejoin="round" stroke-miterlimit="10" stroke-width="2" d="M38.0526,37.7487l21.4611-21.4611c0.3905-0.3905,0.3905-1.0237,0-1.4142l-2.3359-2.3359c-0.3905-0.3905-1.0237-0.3905-1.4142,0 L34.3025,33.9986l-2.6258,6.3865L38.0526,37.7487l-3.7501-3.7501"/>
  </g>
</svg>